<svg width="117" height="72" viewBox="0 0 117 72" fill="none" xmlns="http://www.w3.org/2000/svg">
<path fill-rule="evenodd" clip-rule="evenodd" d="M7.63635 7.42203L13.4072 71.1905L99.2257 64.5277L92.831 0L7.63635 7.42203Z" fill="#FD0000"/>
<path d="M17.2415 15.8528V36.0825H28.4429C35.3197 36.0257 38.751 31.002 38.751 25.9712C38.751 20.9404 35.3197 15.9096 28.4429 15.8528H17.2415ZM20.7649 18.8897H28.3011C32.8029 18.8897 35.0574 22.4163 35.0574 25.9712C35.0574 29.4977 32.8029 33.0242 28.3011 33.0242H20.7649V18.8897ZM42.5935 36.0825H46.117V20.4224L60.2677 36.0825H63.8195V15.8528H60.2677V31.52L46.117 15.8528H42.5935V36.0825ZM66.8255 15.8528V18.833H76.3254V36.0825H79.8772V18.833H89.3772V15.8528H66.8255Z" fill="#FEFEFE" stroke="#FEFEFE" stroke-width="1.12883" stroke-miterlimit="22.9256"/>
<path fill-rule="evenodd" clip-rule="evenodd" d="M39.7388 44.2058L41.8798 61.5972L117 61.8172L114.838 39.3027L39.7388 44.2058Z" fill="#0300FD"/>
<path d="M57.9001 57.2199V47.1867H56.3759V51.0254C55.9363 50.2946 55.0005 49.8617 53.8875 49.8617C51.6755 49.8617 50.1725 51.3731 50.1725 53.5798C50.1725 55.815 51.7181 57.4115 53.8875 57.4115C55.0289 57.4115 55.9789 56.9503 56.3759 56.2052V57.2199H57.9001ZM56.3617 53.5798C56.3617 55.0274 55.4046 56.0349 54.0151 56.0349C52.6539 56.0349 51.7039 55.0415 51.7039 53.5798C51.7039 52.1607 52.6113 51.2454 54.0151 51.2454C55.433 51.2454 56.3617 52.1607 56.3617 53.5798ZM61.0195 47.7401C61.0195 48.3291 61.4945 48.7903 62.0687 48.7903C62.6572 48.7903 63.1251 48.3149 63.1251 47.7401C63.1251 47.1654 62.6714 46.6971 62.0687 46.6971C61.4661 46.6971 61.0195 47.1654 61.0195 47.7401ZM59.3322 57.2199H65.1739V55.9782H63.04V50.0533H59.3322V51.288H61.5512V55.9782H59.3322V57.2199ZM74.5605 49.954H72.4974V51.1389C72.0011 50.3371 71.0511 49.8475 69.9665 49.8475C68.2862 49.8475 67.0385 51.0538 67.0385 52.5013C67.0385 53.218 67.3433 53.8069 67.6836 54.0836C67.1094 54.2681 66.7691 54.6868 66.7691 55.1835C66.7691 55.6731 67.0385 56.191 67.4426 56.4323C66.9109 56.6381 66.4217 57.0354 66.4217 57.8372C66.4217 59.0151 67.4284 60.0794 69.9523 60.0794C72.0295 60.0794 73.9649 59.4337 73.9649 57.7095C73.9649 56.3046 72.6605 55.6447 69.9665 55.7156C68.5131 55.7582 67.868 55.5453 67.868 55.1125C67.868 54.928 68.0594 54.7435 68.3146 54.6868C68.6903 54.928 69.293 55.0983 69.9665 55.0983C71.5829 55.0983 72.9015 54.1546 72.9015 52.5439C72.9015 52.0472 72.7739 51.586 72.5399 51.1957H74.5605V49.954ZM69.9665 53.8495C69.059 53.8495 68.4706 53.3386 68.4706 52.5013C68.4706 51.6711 69.059 51.0964 69.9665 51.0964C70.8668 51.0964 71.4694 51.6711 71.4694 52.5013C71.4694 53.3386 70.8668 53.8495 69.9665 53.8495ZM68.343 56.78C68.7045 56.9219 69.1015 56.9645 69.9665 56.9503C71.4836 56.9219 72.4407 57.0354 72.4407 57.7521C72.4407 58.4262 71.5545 58.8874 69.9523 58.8874C68.4564 58.8874 67.6411 58.4829 67.6411 57.7237C67.6411 57.2625 67.9176 56.9361 68.343 56.78ZM77.5026 47.7401C77.5026 48.3291 77.9705 48.7903 78.5448 48.7903C79.1332 48.7903 79.6082 48.3149 79.6082 47.7401C79.6082 47.1654 79.1474 46.6971 78.5448 46.6971C77.9422 46.6971 77.5026 47.1654 77.5026 47.7401ZM75.8082 57.2199H81.6571V55.9782H79.5231V50.0533H75.8082V51.288H78.0343V55.9782H75.8082V57.2199ZM88.5481 54.6158C88.5481 55.517 88.0589 56.0633 87.3996 56.0633C86.6977 56.0633 86.3574 55.446 86.3574 54.4526V51.3021H88.938V50.0533H86.3574V47.6408H84.8119V49.1025C84.8119 49.734 84.741 50.0533 84.1526 50.0533H82.8339V51.3021H84.8119V54.4526C84.8119 56.2762 85.6555 57.3973 87.3145 57.3973C88.782 57.3973 89.8667 56.5458 89.8667 55.1693L88.5481 54.6158ZM94.17 57.4115C95.4249 57.4115 96.6017 56.8935 96.7861 56.0917C96.8499 56.6026 97.1334 56.9928 97.5517 57.1915C97.9204 57.3831 98.3812 57.4115 98.8208 57.2341V55.9498C98.6364 55.9924 98.4379 56.0065 98.282 55.8717C98.1189 55.744 98.0055 55.4602 98.0055 54.928V52.3878C98.0055 50.8267 96.8286 49.8475 94.7797 49.8475C93.0074 49.8475 91.6604 50.5855 91.4902 51.6853L92.8656 52.0898C92.979 51.5292 93.6525 51.1389 94.6947 51.1389C95.7014 51.1389 96.4883 51.4724 96.4883 52.0188C96.4883 52.5297 95.7723 52.778 93.9928 52.9058C92.3055 53.0335 91.2704 53.8495 91.2704 55.1693C91.2704 56.4749 92.2913 57.4115 94.17 57.4115ZM94.17 56.1343C93.3193 56.1343 92.8088 55.7724 92.8088 55.1835C92.8088 54.63 93.2909 54.2397 94.0779 54.183C95.4107 54.0978 96.2331 53.9417 96.5025 53.6224C96.5025 55.1409 95.5312 56.1343 94.17 56.1343ZM99.0831 48.3717H100.77V54.5094C100.77 56.2904 101.791 57.3973 103.436 57.3973C104.974 57.3973 105.96 56.4607 105.974 54.9564L104.67 54.41C104.655 55.4318 104.18 56.0633 103.436 56.0633C102.734 56.0633 102.309 55.4744 102.309 54.5094V47.0377H99.0831V48.3717Z" fill="#FEFEFE"/>
<path fill-rule="evenodd" clip-rule="evenodd" d="M28.1239 57.134L28.3649 60.9373L6.62142 62.2358L6.37329 58.7518L28.1239 57.134Z" fill="#1C1B1B"/>
<path fill-rule="evenodd" clip-rule="evenodd" d="M0 49.1936L0.779846 55.9628L35.3412 51.6842L34.5613 45.8019L0 49.1936Z" fill="#FECD05"/>
</svg>
